<svg width="593" height="115" viewBox="0 0 593 115" fill="none" xmlns="http://www.w3.org/2000/svg">
<path d="M11.9479 14.15L0.997852 12.05V1.55H24.3979C27.6979 1.55 32.1479 1.35 37.7479 0.949994C39.0479 0.849995 40.9979 0.749997 43.5979 0.649998C46.2979 0.549993 48.6979 0.499991 50.7979 0.499991C68.9979 0.499991 82.6979 5.04999 91.8979 14.15C101.098 23.25 105.698 36.3 105.698 53.3C105.698 65 103.448 75.45 98.9479 84.65C94.4479 93.85 87.9979 101.1 79.5979 106.4C71.1979 111.6 61.2979 114.2 49.8979 114.2C46.7979 114.2 42.1479 114 35.9479 113.6C30.1479 113.2 26.3979 113 24.6979 113H0.397852V103.1L11.9479 101.45V14.15ZM37.2979 101.9C40.7979 103 44.7979 103.45 49.2979 103.25C58.2979 103.15 65.2479 99.35 70.1479 91.85C75.1479 84.25 77.6479 72.65 77.6479 57.05C77.6479 42.65 75.1979 31.4 70.2979 23.3C65.4979 15.1 57.8979 11 47.4979 11C45.0979 11 42.9479 11.15 41.0479 11.45C39.1479 11.75 37.8979 11.95 37.2979 12.05V101.9ZM117.352 91.1C117.352 81.4 122.152 74.4 131.752 70.1C141.352 65.7 153.302 63.35 167.602 63.05V58.4C167.602 53.3 167.052 49.3 165.952 46.4C164.952 43.4 163.152 41.25 160.552 39.95C157.952 38.55 154.302 37.85 149.602 37.85C144.502 37.85 139.852 38.65 135.652 40.25C131.552 41.75 127.552 43.6 123.652 45.8L120.352 39.2C121.452 38.2 123.752 36.8 127.252 35C130.752 33.2 134.752 31.6 139.252 30.2C143.752 28.8 148.102 28.1 152.302 28.1C159.102 28.1 164.452 29.05 168.352 30.95C172.352 32.85 175.202 35.9 176.902 40.1C178.702 44.3 179.602 49.95 179.602 57.05V106.55H188.902V112.1C183.402 113.6 178.752 114.35 174.952 114.35C172.552 114.35 170.902 113.95 170.002 113.15C169.102 112.45 168.652 110.75 168.652 108.05V102.5C165.052 105.7 161.102 108.55 156.802 111.05C152.602 113.45 147.802 114.65 142.402 114.65C135.202 114.65 129.202 112.65 124.402 108.65C119.702 104.65 117.352 98.8 117.352 91.1ZM146.902 105.8C149.702 105.8 153.052 104.9 156.952 103.1C160.852 101.3 164.402 99.15 167.602 96.65V70.1C155.502 70.2 146.302 72 140.002 75.5C133.802 79 130.702 83.7 130.702 89.6C130.702 95.3 132.152 99.45 135.052 102.05C137.952 104.55 141.902 105.8 146.902 105.8ZM225.898 114.65C220.598 114.65 216.598 113.45 213.898 111.05C211.198 108.55 209.848 104.15 209.848 97.85V38.6H198.448V32.75C203.448 31.65 206.348 30.85 207.148 30.35C208.648 29.55 209.748 28 210.448 25.7C211.048 24.2 211.848 21.5 212.848 17.6C213.848 13.7 214.598 10.65 215.098 8.45H221.998V29.75H248.548V38.6H221.998V87.2C221.998 93 222.198 97.1 222.598 99.5C222.998 101.8 223.798 103.3 224.998 104C226.198 104.7 228.298 105.05 231.298 105.05C234.198 105.05 237.448 104.65 241.048 103.85C244.648 103.05 247.348 102.2 249.148 101.3L251.098 107C248.798 108.8 244.998 110.55 239.698 112.25C234.398 113.85 229.798 114.65 225.898 114.65ZM261.786 91.1C261.786 81.4 266.586 74.4 276.186 70.1C285.786 65.7 297.736 63.35 312.036 63.05V58.4C312.036 53.3 311.486 49.3 310.386 46.4C309.386 43.4 307.586 41.25 304.986 39.95C302.386 38.55 298.736 37.85 294.036 37.85C288.936 37.85 284.286 38.65 280.086 40.25C275.986 41.75 271.986 43.6 268.086 45.8L264.786 39.2C265.886 38.2 268.186 36.8 271.686 35C275.186 33.2 279.186 31.6 283.686 30.2C288.186 28.8 292.536 28.1 296.736 28.1C303.536 28.1 308.886 29.05 312.786 30.95C316.786 32.85 319.636 35.9 321.336 40.1C323.136 44.3 324.036 49.95 324.036 57.05V106.55H333.336V112.1C327.836 113.6 323.186 114.35 319.386 114.35C316.986 114.35 315.336 113.95 314.436 113.15C313.536 112.45 313.086 110.75 313.086 108.05V102.5C309.486 105.7 305.536 108.55 301.236 111.05C297.036 113.45 292.236 114.65 286.836 114.65C279.636 114.65 273.636 112.65 268.836 108.65C264.136 104.65 261.786 98.8 261.786 91.1ZM291.336 105.8C294.136 105.8 297.486 104.9 301.386 103.1C305.286 101.3 308.836 99.15 312.036 96.65V70.1C299.936 70.2 290.736 72 284.436 75.5C278.236 79 275.136 83.7 275.136 89.6C275.136 95.3 276.586 99.45 279.486 102.05C282.386 104.55 286.336 105.8 291.336 105.8ZM354.282 14.15L343.032 12.05V1.55H366.732C370.132 1.55 374.632 1.35 380.232 0.949994C381.432 0.849995 382.932 0.749997 384.732 0.649998C386.532 0.549993 388.632 0.499991 391.032 0.499991C401.932 0.499991 410.482 1.49999 416.682 3.5C422.882 5.5 427.182 8.34999 429.582 12.05C432.082 15.75 433.332 20.4 433.332 26C433.332 33.5 430.982 39.7 426.282 44.6C421.682 49.5 415.782 52.45 408.582 53.45C418.582 53.45 426.432 55.7 432.132 60.2C437.932 64.7 440.832 71.05 440.832 79.25C440.832 89.95 437.132 98.4 429.732 104.6C422.432 110.8 409.982 113.9 392.382 113.9C389.582 113.9 386.882 113.8 384.282 113.6C381.682 113.5 379.832 113.45 378.732 113.45C375.132 113.15 371.232 113 367.032 113H342.732V103.1L354.282 101.45V14.15ZM379.632 49.7C381.432 49.9 385.482 50 391.782 50C397.282 50 401.332 48.15 403.932 44.45C406.532 40.65 407.832 35.35 407.832 28.55C407.832 22.25 406.432 17.65 403.632 14.75C400.832 11.85 396.282 10.4 389.982 10.4C388.482 10.4 386.732 10.5 384.732 10.7C382.732 10.8 381.032 10.95 379.632 11.15V49.7ZM379.632 102.35C381.632 103.15 385.582 103.55 391.482 103.55C398.882 103.55 404.232 101.6 407.532 97.7C410.932 93.8 412.632 88.15 412.632 80.75C412.632 73.75 411.082 68.75 407.982 65.75C404.882 62.75 399.982 61.25 393.282 61.25C387.782 61.25 383.232 61.35 379.632 61.55V102.35ZM451.901 70.85C451.901 62.15 453.701 54.5 457.301 47.9C461.001 41.3 465.801 36.25 471.701 32.75C477.701 29.25 483.951 27.5 490.451 27.5C503.051 27.5 512.351 31.6 518.351 39.8C524.451 48 527.501 58.5 527.501 71.3C527.501 80 525.651 87.65 521.951 94.25C518.351 100.85 513.551 105.9 507.551 109.4C501.651 112.9 495.451 114.65 488.951 114.65C476.351 114.65 467.001 110.55 460.901 102.35C454.901 94.15 451.901 83.65 451.901 70.85ZM489.701 106.85C497.401 106.85 503.351 103.9 507.551 98C511.751 92.1 513.851 83.5 513.851 72.2C513.851 61.4 511.901 52.55 508.001 45.65C504.101 38.75 498.051 35.3 489.851 35.3C482.151 35.3 476.151 38.25 471.851 44.15C467.651 50.05 465.551 58.65 465.551 69.95C465.551 80.85 467.501 89.75 471.401 96.65C475.401 103.45 481.501 106.85 489.701 106.85ZM567.06 114.65C561.76 114.65 557.76 113.45 555.06 111.05C552.36 108.55 551.01 104.15 551.01 97.85V38.6H539.61V32.75C544.61 31.65 547.51 30.85 548.31 30.35C549.81 29.55 550.91 28 551.61 25.7C552.21 24.2 553.01 21.5 554.01 17.6C555.01 13.7 555.76 10.65 556.26 8.45H563.16V29.75H589.71V38.6H563.16V87.2C563.16 93 563.36 97.1 563.76 99.5C564.16 101.8 564.96 103.3 566.16 104C567.36 104.7 569.46 105.05 572.46 105.05C575.36 105.05 578.61 104.65 582.21 103.85C585.81 103.05 588.51 102.2 590.31 101.3L592.26 107C589.96 108.8 586.16 110.55 580.86 112.25C575.56 113.85 570.96 114.65 567.06 114.65Z" fill="#644883"/>
</svg>
